<?xml version="1.0" encoding="UTF-8"?>
<svg xmlns="http://www.w3.org/2000/svg" xmlns:xlink="http://www.w3.org/1999/xlink" width="305px" height="305px" viewBox="0 0 305 304" version="1.1">
<defs>
<clipPath id="clip1">
  <path d="M 0.078125 0 L 304.792969 0 L 304.792969 303.867188 L 0.078125 303.867188 Z M 0.078125 0 "/>
</clipPath>
<clipPath id="clip2">
  <path d="M 79 142.625 L 82 142.625 L 82 161.246094 L 79 161.246094 Z M 79 142.625 "/>
</clipPath>
<clipPath id="clip3">
  <path d="M 85.894531 142.671875 L 247.160156 142.671875 L 247.160156 161.199219 L 85.894531 161.199219 Z M 85.894531 142.671875 "/>
</clipPath>
<clipPath id="clip4">
  <path d="M 57.710938 142.671875 L 75.449219 142.671875 L 75.449219 161.199219 L 57.710938 161.199219 Z M 57.710938 142.671875 "/>
</clipPath>
</defs>
<g id="surface1">
<g clip-path="url(#clip1)" clip-rule="nonzero">
<path style="fill-rule:nonzero;fill:rgb(91.372549%,89.411765%,87.058824%);fill-opacity:1;stroke-width:1;stroke-linecap:butt;stroke-linejoin:miter;stroke:rgb(100%,100%,100%);stroke-opacity:1;stroke-miterlimit:4;" d="M 0.00214668 171.425075 C 0.00214668 76.750128 76.74987 0.000000000000003085 171.42532 0.000000000000003085 C 266.10077 0.000000000000003085 342.852888 76.750128 342.852888 171.425075 C 342.852888 266.100021 266.10077 342.850149 171.42532 342.850149 C 76.74987 342.850149 0.00214668 266.100021 0.00214668 171.425075 Z M 171.42532 340.968197 C 265.059124 340.968197 340.967378 265.059879 340.967378 171.425075 C 340.967378 77.79027 265.059124 1.886359 171.42532 1.886359 C 77.791515 1.886359 1.883261 77.79027 1.883261 171.425075 C 1.883261 265.059879 77.791515 340.968197 171.42532 340.968197 Z M 171.42532 340.968197 " transform="matrix(0.888768,0,0,0.886297,0.0762171,-0.000000000000002734)"/>
</g>
<path style=" stroke:none;fill-rule:nonzero;fill:rgb(91.372549%,89.411765%,87.058824%);fill-opacity:1;" d="M 298.699219 151.933594 C 298.699219 71.378906 233.214844 6.078125 152.433594 6.078125 C 71.65625 6.078125 6.171875 71.378906 6.171875 151.933594 C 6.171875 232.488281 71.65625 297.792969 152.433594 297.792969 C 233.214844 297.792969 298.699219 232.488281 298.699219 151.933594 Z M 298.699219 151.933594 "/>
<g clip-path="url(#clip2)" clip-rule="nonzero">
<path style=" stroke:none;fill-rule:nonzero;fill:rgb(91.372549%,89.411765%,87.058824%);fill-opacity:1;" d="M 80.671875 142.625 C 81.132812 142.625 81.507812 143.46875 81.507812 144.515625 L 81.507812 159.355469 C 81.507812 160.398438 81.132812 161.242188 80.671875 161.242188 C 80.207031 161.242188 79.832031 160.398438 79.832031 159.355469 L 79.832031 144.515625 C 79.832031 143.46875 80.207031 142.625 80.671875 142.625 Z M 80.671875 142.625 "/>
</g>
<g clip-path="url(#clip3)" clip-rule="nonzero">
<path style=" stroke:none;fill-rule:nonzero;fill:rgb(7.843137%,16.078431%,22.745098%);fill-opacity:1;" d="M 94.191406 145.027344 C 94.496094 145.027344 94.710938 145.097656 94.839844 145.234375 C 94.96875 145.375 95.03125 145.605469 95.03125 145.9375 C 95.03125 146.265625 94.96875 146.5 94.839844 146.636719 C 94.710938 146.777344 94.496094 146.84375 94.191406 146.84375 L 90.945312 146.84375 L 90.945312 159.082031 L 97.582031 159.082031 L 97.582031 154.683594 C 97.582031 154.371094 97.660156 154.148438 97.8125 154.015625 C 97.960938 153.878906 98.222656 153.8125 98.585938 153.8125 C 98.957031 153.8125 99.21875 153.878906 99.367188 154.015625 C 99.519531 154.148438 99.597656 154.371094 99.597656 154.683594 L 99.597656 159.992188 C 99.597656 160.320312 99.53125 160.554688 99.398438 160.695312 C 99.273438 160.832031 99.054688 160.902344 98.753906 160.902344 L 86.761719 160.902344 C 86.457031 160.902344 86.238281 160.832031 86.113281 160.695312 C 85.980469 160.554688 85.914062 160.320312 85.914062 159.992188 C 85.914062 159.664062 85.980469 159.429688 86.113281 159.292969 C 86.238281 159.152344 86.457031 159.082031 86.761719 159.082031 L 88.933594 159.082031 L 88.933594 146.84375 L 86.761719 146.84375 C 86.457031 146.84375 86.238281 146.777344 86.113281 146.636719 C 85.980469 146.5 85.914062 146.265625 85.914062 145.9375 C 85.914062 145.605469 85.980469 145.375 86.113281 145.234375 C 86.238281 145.097656 86.457031 145.027344 86.761719 145.027344 Z M 113.863281 148.542969 C 114.167969 148.542969 114.382812 148.613281 114.511719 148.75 C 114.644531 148.890625 114.710938 149.125 114.710938 149.453125 L 114.710938 159.082031 L 115.808594 159.082031 C 116.113281 159.082031 116.328125 159.152344 116.457031 159.292969 C 116.589844 159.429688 116.65625 159.664062 116.65625 159.992188 C 116.65625 160.320312 116.589844 160.554688 116.457031 160.695312 C 116.328125 160.832031 116.113281 160.902344 115.808594 160.902344 L 113.675781 160.902344 C 113.375 160.902344 113.15625 160.835938 113.023438 160.699219 C 112.894531 160.566406 112.832031 160.335938 112.832031 160.003906 L 112.832031 158.386719 C 112.242188 159.296875 111.550781 159.992188 110.761719 160.472656 C 109.96875 160.957031 109.117188 161.199219 108.207031 161.199219 C 107.394531 161.199219 106.6875 161.019531 106.085938 160.667969 C 105.484375 160.316406 105.023438 159.808594 104.703125 159.148438 C 104.382812 158.492188 104.222656 157.722656 104.222656 156.835938 L 104.222656 150.363281 L 103.121094 150.363281 C 102.816406 150.363281 102.597656 150.292969 102.472656 150.152344 C 102.34375 150.015625 102.277344 149.78125 102.277344 149.453125 C 102.277344 149.125 102.34375 148.890625 102.472656 148.75 C 102.597656 148.613281 102.816406 148.542969 103.121094 148.542969 L 105.386719 148.542969 C 105.691406 148.542969 105.90625 148.613281 106.035156 148.75 C 106.167969 148.890625 106.234375 149.125 106.234375 149.453125 L 106.234375 156.632812 C 106.234375 157.425781 106.417969 158.054688 106.785156 158.519531 C 107.148438 158.984375 107.691406 159.214844 108.402344 159.214844 C 109.164062 159.214844 109.875 158.996094 110.53125 158.5625 C 111.1875 158.125 111.714844 157.523438 112.105469 156.753906 C 112.5 155.988281 112.699219 155.132812 112.699219 154.1875 L 112.699219 150.363281 L 110.792969 150.363281 C 110.488281 150.363281 110.273438 150.292969 110.140625 150.152344 C 110.011719 150.015625 109.949219 149.78125 109.949219 149.453125 C 109.949219 149.125 110.011719 148.890625 110.140625 148.75 C 110.273438 148.613281 110.488281 148.542969 110.792969 148.542969 Z M 126.5 148.542969 C 126.804688 148.542969 127.019531 148.613281 127.148438 148.75 C 127.273438 148.890625 127.339844 149.125 127.339844 149.453125 L 127.339844 159.082031 L 131.644531 159.082031 C 131.949219 159.082031 132.167969 159.152344 132.292969 159.292969 C 132.425781 159.429688 132.492188 159.664062 132.492188 159.992188 C 132.492188 160.320312 132.425781 160.554688 132.292969 160.695312 C 132.167969 160.832031 131.949219 160.902344 131.644531 160.902344 L 121.132812 160.902344 C 120.828125 160.902344 120.613281 160.832031 120.484375 160.695312 C 120.351562 160.554688 120.285156 160.320312 120.285156 159.992188 C 120.285156 159.664062 120.351562 159.429688 120.484375 159.292969 C 120.613281 159.152344 120.828125 159.082031 121.132812 159.082031 L 125.328125 159.082031 L 125.328125 150.363281 L 121.933594 150.363281 C 121.628906 150.363281 121.414062 150.292969 121.285156 150.152344 C 121.15625 150.015625 121.09375 149.78125 121.09375 149.453125 C 121.09375 149.125 121.15625 148.890625 121.285156 148.75 C 121.414062 148.613281 121.628906 148.542969 121.933594 148.542969 Z M 126.066406 142.671875 C 126.558594 142.671875 126.894531 142.738281 127.070312 142.867188 C 127.25 142.996094 127.339844 143.21875 127.339844 143.542969 L 127.339844 145.277344 C 127.339844 145.601562 127.25 145.824219 127.070312 145.957031 C 126.894531 146.085938 126.558594 146.148438 126.066406 146.148438 C 125.574219 146.148438 125.238281 146.085938 125.058594 145.957031 C 124.878906 145.824219 124.789062 145.601562 124.789062 145.277344 L 124.789062 143.542969 C 124.789062 143.21875 124.878906 142.996094 125.058594 142.867188 C 125.238281 142.738281 125.574219 142.671875 126.066406 142.671875 Z M 146.703125 148.246094 C 147.074219 148.246094 147.332031 148.316406 147.484375 148.449219 C 147.636719 148.585938 147.714844 148.808594 147.714844 149.117188 L 147.714844 151.660156 C 147.714844 151.972656 147.636719 152.195312 147.484375 152.328125 C 147.332031 152.464844 147.074219 152.53125 146.703125 152.53125 C 146.398438 152.53125 146.183594 152.414062 146.0625 152.179688 C 145.675781 151.449219 145.117188 150.933594 144.386719 150.636719 C 143.652344 150.335938 142.722656 150.1875 141.59375 150.1875 C 140.726562 150.1875 140.050781 150.34375 139.5625 150.652344 C 139.074219 150.960938 138.832031 151.386719 138.832031 151.941406 C 138.832031 152.222656 138.921875 152.457031 139.105469 152.636719 C 139.289062 152.8125 139.558594 152.960938 139.917969 153.078125 C 140.214844 153.179688 140.558594 153.253906 140.945312 153.304688 C 141.335938 153.359375 141.839844 153.417969 142.457031 153.480469 C 143.320312 153.578125 144.019531 153.667969 144.554688 153.753906 C 145.085938 153.835938 145.589844 153.964844 146.0625 154.136719 C 146.777344 154.390625 147.335938 154.765625 147.730469 155.257812 C 148.128906 155.75 148.328125 156.394531 148.328125 157.199219 C 148.328125 158 148.125 158.699219 147.71875 159.300781 C 147.3125 159.90625 146.71875 160.371094 145.933594 160.699219 C 145.152344 161.03125 144.214844 161.199219 143.128906 161.199219 C 142.160156 161.199219 141.3125 161.0625 140.578125 160.792969 C 139.847656 160.527344 139.207031 160.121094 138.660156 159.574219 L 138.660156 160.328125 C 138.660156 160.636719 138.585938 160.859375 138.429688 160.996094 C 138.28125 161.128906 138.023438 161.199219 137.65625 161.199219 C 137.285156 161.199219 137.027344 161.128906 136.875 160.996094 C 136.722656 160.859375 136.644531 160.636719 136.644531 160.328125 L 136.644531 157.117188 C 136.644531 156.804688 136.722656 156.582031 136.875 156.449219 C 137.027344 156.3125 137.285156 156.246094 137.65625 156.246094 C 137.84375 156.246094 137.988281 156.289062 138.09375 156.375 C 138.203125 156.460938 138.296875 156.601562 138.375 156.792969 C 138.699219 157.652344 139.234375 158.277344 139.984375 158.667969 C 140.734375 159.0625 141.738281 159.257812 142.988281 159.257812 C 144.027344 159.257812 144.824219 159.070312 145.378906 158.695312 C 145.933594 158.320312 146.210938 157.824219 146.210938 157.199219 C 146.210938 156.894531 146.109375 156.644531 145.914062 156.449219 C 145.71875 156.25 145.4375 156.089844 145.070312 155.964844 C 144.757812 155.867188 144.394531 155.785156 143.988281 155.71875 C 143.582031 155.652344 143.066406 155.589844 142.441406 155.527344 C 141.601562 155.4375 140.902344 155.339844 140.335938 155.242188 C 139.773438 155.144531 139.253906 155 138.78125 154.816406 C 138.125 154.554688 137.617188 154.199219 137.253906 153.742188 C 136.894531 153.28125 136.714844 152.679688 136.714844 151.941406 C 136.714844 151.164062 136.917969 150.5 137.328125 149.941406 C 137.734375 149.386719 138.296875 148.964844 139.011719 148.679688 C 139.734375 148.390625 140.550781 148.246094 141.460938 148.246094 C 142.332031 148.246094 143.125 148.378906 143.839844 148.636719 C 144.5625 148.894531 145.183594 149.257812 145.699219 149.722656 L 145.699219 149.117188 C 145.699219 148.808594 145.773438 148.585938 145.929688 148.449219 C 146.078125 148.316406 146.335938 148.246094 146.703125 148.246094 Z M 175.417969 144.730469 C 176.8125 144.730469 178.042969 145.074219 179.113281 145.761719 C 180.179688 146.445312 181.003906 147.414062 181.589844 148.660156 C 182.175781 149.898438 182.46875 151.335938 182.46875 152.96875 C 182.46875 154.601562 182.175781 156.039062 181.589844 157.285156 C 181.003906 158.527344 180.179688 159.492188 179.113281 160.171875 C 178.042969 160.855469 176.8125 161.199219 175.417969 161.199219 C 174.023438 161.199219 172.789062 160.855469 171.71875 160.171875 C 170.65625 159.492188 169.828125 158.527344 169.242188 157.285156 C 168.65625 156.039062 168.363281 154.601562 168.363281 152.96875 C 168.363281 151.335938 168.65625 149.898438 169.242188 148.660156 C 169.828125 147.414062 170.65625 146.445312 171.71875 145.761719 C 172.789062 145.074219 174.023438 144.730469 175.417969 144.730469 Z M 175.417969 146.714844 C 174.433594 146.714844 173.566406 146.96875 172.824219 147.476562 C 172.078125 147.984375 171.5 148.710938 171.09375 149.65625 C 170.6875 150.601562 170.484375 151.707031 170.484375 152.96875 C 170.484375 154.238281 170.6875 155.339844 171.09375 156.277344 C 171.5 157.21875 172.078125 157.945312 172.824219 158.453125 C 173.566406 158.960938 174.433594 159.214844 175.417969 159.214844 C 176.402344 159.214844 177.265625 158.960938 178.011719 158.453125 C 178.757812 157.945312 179.332031 157.21875 179.742188 156.277344 C 180.148438 155.339844 180.351562 154.238281 180.351562 152.96875 C 180.351562 151.707031 180.148438 150.601562 179.742188 149.65625 C 179.332031 148.710938 178.757812 147.984375 178.011719 147.476562 C 177.265625 146.96875 176.402344 146.714844 175.417969 146.714844 Z M 195.988281 148.246094 C 196.6875 148.246094 197.335938 148.425781 197.945312 148.785156 C 198.304688 149 198.484375 149.277344 198.484375 149.613281 C 198.484375 149.773438 198.445312 149.960938 198.363281 150.175781 C 198.175781 150.683594 197.917969 150.9375 197.582031 150.9375 C 197.449219 150.9375 197.328125 150.902344 197.210938 150.832031 C 196.769531 150.59375 196.300781 150.472656 195.804688 150.472656 C 194.996094 150.472656 194.1875 150.75 193.375 151.304688 C 192.5625 151.863281 191.894531 152.605469 191.371094 153.535156 C 190.847656 154.460938 190.585938 155.445312 190.585938 156.488281 L 190.585938 159.082031 L 195.105469 159.082031 C 195.410156 159.082031 195.625 159.152344 195.753906 159.292969 C 195.886719 159.429688 195.953125 159.664062 195.953125 159.992188 C 195.953125 160.320312 195.886719 160.554688 195.753906 160.695312 C 195.625 160.832031 195.410156 160.902344 195.105469 160.902344 L 186.464844 160.902344 C 186.160156 160.902344 185.945312 160.832031 185.816406 160.695312 C 185.6875 160.554688 185.625 160.320312 185.625 159.992188 C 185.625 159.664062 185.6875 159.429688 185.816406 159.292969 C 185.945312 159.152344 186.160156 159.082031 186.464844 159.082031 L 188.574219 159.082031 L 188.574219 150.363281 L 186.871094 150.363281 C 186.566406 150.363281 186.347656 150.292969 186.21875 150.152344 C 186.089844 150.015625 186.023438 149.78125 186.023438 149.453125 C 186.023438 149.125 186.089844 148.890625 186.21875 148.75 C 186.347656 148.613281 186.566406 148.542969 186.871094 148.542969 L 189.605469 148.542969 C 189.910156 148.542969 190.125 148.613281 190.253906 148.75 C 190.386719 148.890625 190.453125 149.125 190.453125 149.453125 L 190.453125 152.152344 C 190.882812 151.367188 191.398438 150.679688 192.007812 150.09375 C 192.613281 149.503906 193.261719 149.050781 193.953125 148.730469 C 194.640625 148.40625 195.320312 148.246094 195.988281 148.246094 Z M 206.261719 144.730469 C 206.628906 144.730469 206.886719 144.796875 207.035156 144.933594 C 207.191406 145.070312 207.269531 145.292969 207.269531 145.601562 L 207.269531 149.613281 L 212.777344 149.613281 C 213.082031 149.613281 213.300781 149.679688 213.429688 149.820312 C 213.558594 149.957031 213.625 150.191406 213.625 150.519531 C 213.625 150.851562 213.558594 151.089844 213.429688 151.226562 C 213.300781 151.363281 213.082031 151.429688 212.777344 151.429688 L 207.269531 151.429688 L 207.269531 156.300781 C 207.269531 157.316406 207.445312 158.058594 207.796875 158.535156 C 208.148438 159.007812 208.765625 159.242188 209.640625 159.242188 C 210.242188 159.242188 210.871094 159.121094 211.53125 158.878906 C 212.191406 158.640625 212.832031 158.320312 213.449219 157.921875 C 213.574219 157.832031 213.714844 157.785156 213.863281 157.785156 C 214.167969 157.785156 214.429688 157.988281 214.644531 158.398438 C 214.757812 158.632812 214.816406 158.832031 214.816406 159 C 214.816406 159.285156 214.667969 159.519531 214.375 159.695312 C 213.675781 160.136719 212.898438 160.496094 212.042969 160.777344 C 211.183594 161.058594 210.382812 161.199219 209.640625 161.199219 C 208.121094 161.199219 207.007812 160.804688 206.304688 160.015625 C 205.605469 159.226562 205.257812 158.046875 205.257812 156.476562 L 205.257812 151.429688 L 202.53125 151.429688 C 202.226562 151.429688 202.011719 151.363281 201.882812 151.226562 C 201.753906 151.089844 201.6875 150.851562 201.6875 150.519531 C 201.6875 150.191406 201.753906 149.957031 201.882812 149.820312 C 202.011719 149.679688 202.226562 149.613281 202.53125 149.613281 L 205.257812 149.613281 L 205.257812 145.601562 C 205.257812 145.292969 205.332031 145.070312 205.480469 144.933594 C 205.636719 144.796875 205.894531 144.730469 206.261719 144.730469 Z M 225.300781 148.542969 C 225.605469 148.542969 225.824219 148.613281 225.957031 148.75 C 226.085938 148.890625 226.148438 149.125 226.148438 149.453125 L 226.148438 159.082031 L 230.453125 159.082031 C 230.757812 159.082031 230.976562 159.152344 231.101562 159.292969 C 231.234375 159.429688 231.300781 159.664062 231.300781 159.992188 C 231.300781 160.320312 231.234375 160.554688 231.101562 160.695312 C 230.976562 160.832031 230.757812 160.902344 230.453125 160.902344 L 219.941406 160.902344 C 219.636719 160.902344 219.417969 160.832031 219.285156 160.695312 C 219.160156 160.554688 219.09375 160.320312 219.09375 159.992188 C 219.09375 159.664062 219.160156 159.429688 219.285156 159.292969 C 219.417969 159.152344 219.636719 159.082031 219.941406 159.082031 L 224.136719 159.082031 L 224.136719 150.363281 L 220.742188 150.363281 C 220.4375 150.363281 220.222656 150.292969 220.09375 150.152344 C 219.960938 150.015625 219.898438 149.78125 219.898438 149.453125 C 219.898438 149.125 219.960938 148.890625 220.09375 148.75 C 220.222656 148.613281 220.4375 148.542969 220.742188 148.542969 Z M 224.875 142.671875 C 225.363281 142.671875 225.699219 142.738281 225.878906 142.867188 C 226.058594 142.996094 226.148438 143.21875 226.148438 143.542969 L 226.148438 145.277344 C 226.148438 145.601562 226.058594 145.824219 225.878906 145.957031 C 225.699219 146.085938 225.363281 146.148438 224.875 146.148438 C 224.382812 146.148438 224.046875 146.085938 223.867188 145.957031 C 223.6875 145.824219 223.597656 145.601562 223.597656 145.277344 L 223.597656 143.542969 C 223.597656 143.21875 223.6875 142.996094 223.867188 142.867188 C 224.046875 142.738281 224.382812 142.671875 224.875 142.671875 Z M 246.15625 148.542969 C 246.457031 148.542969 246.675781 148.613281 246.808594 148.75 C 246.9375 148.890625 247 149.125 247 149.453125 C 247 149.710938 246.933594 149.917969 246.804688 150.066406 L 238.617188 159.082031 L 245.121094 159.082031 L 245.121094 156.78125 C 245.121094 156.472656 245.199219 156.25 245.351562 156.113281 C 245.503906 155.980469 245.761719 155.910156 246.132812 155.910156 C 246.5 155.910156 246.757812 155.980469 246.90625 156.113281 C 247.0625 156.25 247.136719 156.472656 247.136719 156.78125 L 247.136719 159.992188 C 247.136719 160.320312 247.074219 160.554688 246.941406 160.695312 C 246.8125 160.832031 246.597656 160.902344 246.292969 160.902344 L 236.289062 160.902344 C 235.984375 160.902344 235.765625 160.832031 235.636719 160.695312 C 235.507812 160.554688 235.441406 160.320312 235.441406 159.992188 C 235.441406 159.726562 235.503906 159.523438 235.628906 159.390625 L 243.824219 150.363281 L 237.722656 150.363281 L 237.722656 152.355469 C 237.722656 152.667969 237.644531 152.890625 237.492188 153.023438 C 237.34375 153.160156 237.082031 153.226562 236.71875 153.226562 C 236.351562 153.226562 236.089844 153.160156 235.9375 153.023438 C 235.789062 152.890625 235.710938 152.667969 235.710938 152.355469 L 235.710938 149.453125 C 235.710938 149.125 235.777344 148.890625 235.90625 148.75 C 236.03125 148.613281 236.25 148.542969 236.550781 148.542969 Z M 246.15625 148.542969 "/>
</g>
<g clip-path="url(#clip4)" clip-rule="nonzero">
<path style=" stroke:none;fill-rule:nonzero;fill:rgb(7.843137%,16.078431%,22.745098%);fill-opacity:1;" d="M 66.578125 142.671875 C 66.5625 143.195312 66.253906 145.15625 62.898438 148.402344 C 59.671875 151.527344 58.164062 151.902344 57.710938 151.933594 C 58.164062 151.96875 59.671875 152.34375 62.898438 155.464844 C 66.253906 158.714844 66.5625 160.675781 66.578125 161.199219 C 66.59375 160.675781 66.902344 158.714844 70.257812 155.464844 C 73.484375 152.34375 74.992188 151.96875 75.445312 151.933594 C 74.992188 151.902344 73.484375 151.527344 70.257812 148.402344 C 66.902344 145.15625 66.59375 143.195312 66.578125 142.671875 "/>
</g>
</g>
</svg>
