<svg xmlns="http://www.w3.org/2000/svg" version="1.1" xmlns:xlink="http://www.w3.org/1999/xlink" xmlns:svgjs="http://svgjs.dev/svgjs" viewBox="0 0 2000 1500"><rect width="2000" height="1500" fill="#191552"></rect><g transform="matrix(0.75,0,0,0.75,249.090909090909,461.3142612060608)"><svg viewBox="0 0 396 152" data-background-color="#191552" preserveAspectRatio="xMidYMid meet" height="767" width="2000" xmlns="http://www.w3.org/2000/svg" xmlns:xlink="http://www.w3.org/1999/xlink"><g id="tight-bounds" transform="matrix(1,0,0,1,0.2400000000000091,0.28028213242723155)"><svg viewBox="0 0 395.52 151.43943573514554" height="151.43943573514554" width="395.52"><g><svg viewBox="0 0 395.52 151.43943573514554" height="151.43943573514554" width="395.52"><g transform="matrix(1,0,0,1,0,77.92804378995417)"><svg viewBox="0 0 395.52 73.51139194519136" height="73.51139194519136" width="395.52"><g id="textblocktransform"><svg viewBox="0 0 395.52 73.51139194519136" height="73.51139194519136" width="395.52" id="textblock"><g><svg viewBox="0 0 395.52 73.51139194519136" height="73.51139194519136" width="395.52"><g transform="matrix(1,0,0,1,0,0)"><svg width="395.52" viewBox="1.5306399999999982 -20.85681 258.62617 48.06827761413121" height="73.51139194519136" data-palette-color="url(#8909cde8-93fa-47da-a02c-936a0e49b19e)"></svg></g></svg></g></svg></g></svg></g><g transform="matrix(1,0,0,1,176.43484257647404,0)"><svg viewBox="0 0 42.650314847051916 73.51139194519136" height="73.51139194519136" width="42.650314847051916"><g><svg xmlns="http://www.w3.org/2000/svg" xmlns:xlink="http://www.w3.org/1999/xlink" version="1.1" x="0" y="0" viewBox="21.679106830508616 1 56.85827385947762 98" enable-background="new 0 0 100 100" xml:space="preserve" height="73.51139194519136" width="42.650314847051916" class="icon-icon-0" data-fill-palette-color="accent" id="icon-0"></svg></g></svg></g><g></g></svg></g><defs></defs><mask id="5f916956-5826-46b3-b2ad-8c932b68e623"><g id="SvgjsG5179"><svg viewBox="0 0 395.52 151.43943573514554" height="151.43943573514554" width="395.52"><g><svg viewBox="0 0 395.52 151.43943573514554" height="151.43943573514554" width="395.52"><g transform="matrix(1,0,0,1,0,77.92804378995417)"><svg viewBox="0 0 395.52 73.51139194519136" height="73.51139194519136" width="395.52"><g id="SvgjsG5178"><svg viewBox="0 0 395.52 73.51139194519136" height="73.51139194519136" width="395.52" id="SvgjsSvg5177"><g><svg viewBox="0 0 395.52 73.51139194519136" height="73.51139194519136" width="395.52"><g transform="matrix(1,0,0,1,0,0)"><svg width="395.52" viewBox="1.5306399999999982 -20.85681 258.62617 48.06827761413121" height="73.51139194519136" data-palette-color="url(#8909cde8-93fa-47da-a02c-936a0e49b19e)"><path d="M24.864 18.098l-23.333-4.742 6.926-34.083 4.322 0.878-6.146 30.242 19.011 3.864zM43.206 21.012v0c-2.742-0.414-4.978-1.236-6.707-2.469-1.729-1.232-3.034-2.75-3.914-4.554-0.888-1.799-1.433-3.773-1.636-5.921-0.21-2.142-0.149-4.31 0.183-6.505v0l2.624-17.393 4.36 0.658-2.624 17.393c-0.253 1.674-0.328 3.338-0.227 4.992 0.096 1.646 0.437 3.157 1.025 4.533 0.581 1.375 1.478 2.536 2.691 3.481 1.213 0.945 2.804 1.566 4.776 1.863v0c1.997 0.301 3.716 0.173 5.155-0.385 1.439-0.558 2.641-1.419 3.605-2.582 0.97-1.155 1.742-2.498 2.317-4.029 0.581-1.53 0.996-3.12 1.245-4.768v0l2.624-17.393 4.361 0.658-2.624 17.393c-0.35 2.32-0.949 4.482-1.797 6.485-0.848 2.003-1.972 3.707-3.371 5.114-1.405 1.406-3.104 2.431-5.095 3.074-1.997 0.636-4.321 0.754-6.971 0.355zM70.57 24.302l-4.384-0.479 3.779-34.574 4.384 0.479zM103.951-4.433l-2.301 3.42c-0.361-0.479-0.853-0.954-1.475-1.425-0.622-0.471-1.328-0.903-2.116-1.298-0.794-0.402-1.663-0.739-2.607-1.012-0.95-0.279-1.943-0.455-2.98-0.526v0c-2.674-0.184-4.68 0.185-6.021 1.109-1.34 0.917-2.07 2.256-2.191 4.019v0c-0.085 1.237 0.173 2.237 0.775 3 0.602 0.763 1.563 1.417 2.882 1.963 1.319 0.552 3.005 1.143 5.06 1.772v0c2.371 0.691 4.413 1.47 6.124 2.336 1.704 0.873 2.985 1.967 3.844 3.282 0.858 1.322 1.215 3.024 1.071 5.106v0c-0.115 1.663-0.53 3.084-1.246 4.264-0.723 1.18-1.68 2.13-2.872 2.85-1.199 0.719-2.576 1.212-4.132 1.479-1.555 0.267-3.228 0.339-5.017 0.216v0c-1.762-0.121-3.469-0.426-5.119-0.914-1.65-0.488-3.202-1.143-4.656-1.965-1.447-0.821-2.785-1.816-4.014-2.983v0l2.36-3.566c0.481 0.588 1.118 1.18 1.913 1.776 0.794 0.596 1.704 1.16 2.73 1.691 1.026 0.525 2.148 0.97 3.366 1.335 1.218 0.365 2.479 0.592 3.782 0.682v0c2.481 0.171 4.434-0.146 5.86-0.95 1.432-0.803 2.207-2.067 2.326-3.789v0c0.09-1.304-0.221-2.374-0.932-3.212-0.711-0.831-1.797-1.561-3.257-2.189-1.467-0.622-3.257-1.27-5.369-1.943v0c-2.307-0.747-4.235-1.525-5.784-2.333-1.548-0.808-2.682-1.812-3.401-3.011-0.72-1.192-1.017-2.703-0.89-4.532v0c0.153-2.215 0.82-4.05 2.003-5.506 1.183-1.455 2.746-2.511 4.689-3.165 1.942-0.648 4.101-0.89 6.475-0.726v0c1.563 0.108 3.012 0.371 4.346 0.79 1.328 0.419 2.557 0.961 3.687 1.627 1.137 0.666 2.166 1.442 3.087 2.328zM136.616 27.211v0c-2.447 0.017-4.67-0.454-6.67-1.413-2-0.966-3.733-2.287-5.198-3.964-1.465-1.67-2.595-3.555-3.39-5.657-0.801-2.101-1.21-4.262-1.225-6.481v0c-0.016-2.32 0.385-4.536 1.204-6.649 0.819-2.106 1.966-3.99 3.44-5.654 1.475-1.657 3.203-2.976 5.183-3.956 1.987-0.974 4.157-1.469 6.51-1.486v0c2.447-0.017 4.67 0.474 6.67 1.474 2 0.999 3.723 2.341 5.168 4.024 1.452 1.69 2.575 3.575 3.37 5.656 0.801 2.088 1.21 4.225 1.225 6.412v0c0.016 2.32-0.378 4.536-1.184 6.648-0.799 2.112-1.935 3.997-3.411 5.654-1.475 1.657-3.206 2.966-5.192 3.927-1.98 0.961-4.147 1.449-6.5 1.465zM124.593 9.665v0c0.012 1.767 0.308 3.471 0.886 5.113 0.585 1.643 1.405 3.097 2.46 4.363 1.056 1.266 2.319 2.271 3.791 3.014 1.472 0.743 3.108 1.108 4.908 1.096v0c1.86-0.013 3.521-0.418 4.982-1.215 1.468-0.79 2.711-1.842 3.728-3.156 1.018-1.314 1.791-2.789 2.319-4.426 0.529-1.637 0.787-3.289 0.775-4.956v0c-0.012-1.76-0.311-3.455-0.895-5.084-0.578-1.629-1.405-3.087-2.481-4.373-1.069-1.279-2.333-2.28-3.791-3.003-1.458-0.723-3.068-1.079-4.827-1.067v0c-1.86 0.013-3.524 0.408-4.992 1.185-1.461 0.777-2.701 1.822-3.718 3.136-1.024 1.314-1.807 2.779-2.35 4.397-0.542 1.617-0.807 3.276-0.795 4.975zM164.245 26.158l-4.401 0.278-2.196-34.71 14.861-0.94c1.537-0.097 2.961 0.133 4.272 0.692 1.311 0.552 2.472 1.33 3.484 2.334 1.012 0.998 1.819 2.139 2.421 3.424 0.603 1.291 0.947 2.619 1.034 3.983v0c0.101 1.597-0.102 3.133-0.611 4.608-0.515 1.469-1.286 2.743-2.313 3.823-1.027 1.08-2.26 1.863-3.699 2.348v0l9.244 12.762-4.99 0.316-8.703-11.964-9.191 0.581zM162.297-4.64l0.912 14.421 10.509-0.665c1.204-0.076 2.234-0.475 3.091-1.197 0.856-0.729 1.501-1.661 1.937-2.798 0.435-1.143 0.613-2.35 0.532-3.621v0c-0.082-1.304-0.451-2.483-1.105-3.537-0.661-1.054-1.485-1.877-2.471-2.469-0.986-0.592-2.048-0.852-3.185-0.781v0zM213.138-13.504l0.462 3.892-11.916 1.415 3.638 30.645-4.379 0.52-3.639-30.645-11.916 1.415-0.462-3.893zM226.918 19.575l-4.362 0.652-5.144-34.398 4.361-0.652zM233.079 18.488l-0.645-3.369 16.87-31.159-21.597 4.136-0.738-3.85 26.646-5.103 0.645 3.369-16.487 31.086 21.647-4.146 0.737 3.85z" opacity="1" transform="matrix(1,0,0,1,0,0)" fill="white" class="wordmark-text-0" id="SvgjsPath5176"></path></svg></g></svg></g></svg></g></svg></g><g transform="matrix(1,0,0,1,176.43484257647404,0)"><svg viewBox="0 0 42.650314847051916 73.51139194519136" height="73.51139194519136" width="42.650314847051916"><g><svg xmlns="http://www.w3.org/2000/svg" xmlns:xlink="http://www.w3.org/1999/xlink" version="1.1" x="0" y="0" viewBox="21.679106830508616 1 56.85827385947762 98" enable-background="new 0 0 100 100" xml:space="preserve" height="73.51139194519136" width="42.650314847051916" class="icon-icon-0" data-fill-palette-color="accent" id="SvgjsSvg5175"><g fill="black"><path fill-rule="evenodd" clip-rule="evenodd" d="M30.545 28.822C29.38 36.039 30.875 43.672 37.045 47.863 30.758 19.81 45.756 8.664 59.646 1 43.466 24.046 76.542 24.644 78.423 51.13 80.028 73.71 64.507 91.317 46.639 99 46.845 76.175 24.089 73.067 21.801 54.397 20.905 47.094 25.062 33.766 30.545 28.822" fill="black"></path></g></svg></g></svg></g><g></g></svg></g><defs><mask></mask></defs></svg><rect width="395.52" height="151.43943573514554" fill="black" stroke="none" visibility="hidden"></rect></g></mask><linearGradient x1="0" x2="1" y1="0.578" y2="0.595" id="8909cde8-93fa-47da-a02c-936a0e49b19e"><stop stop-color="#6ee2f5" offset="0"></stop><stop stop-color="#6454f0" offset="1"></stop></linearGradient><rect width="395.52" height="151.43943573514554" fill="url(#8909cde8-93fa-47da-a02c-936a0e49b19e)" mask="url(#5f916956-5826-46b3-b2ad-8c932b68e623)" data-fill-palette-color="primary"></rect><mask id="7537c52d-7b7f-40ea-85f0-40eaf2b2274e"><g id="SvgjsG5188"><svg viewBox="0 0 395.52 151.43943573514554" height="151.43943573514554" width="395.52"><g><svg viewBox="0 0 395.52 151.43943573514554" height="151.43943573514554" width="395.52"><g transform="matrix(1,0,0,1,0,77.92804378995417)"><svg viewBox="0 0 395.52 73.51139194519136" height="73.51139194519136" width="395.52"><g id="SvgjsG5187"><svg viewBox="0 0 395.52 73.51139194519136" height="73.51139194519136" width="395.52" id="SvgjsSvg5186"><g><svg viewBox="0 0 395.52 73.51139194519136" height="73.51139194519136" width="395.52"><g transform="matrix(1,0,0,1,0,0)"><svg width="395.52" viewBox="1.5306399999999982 -20.85681 258.62617 48.06827761413121" height="73.51139194519136" data-palette-color="url(#8909cde8-93fa-47da-a02c-936a0e49b19e)"></svg></g></svg></g></svg></g></svg></g><g transform="matrix(1,0,0,1,176.43484257647404,0)"><svg viewBox="0 0 42.650314847051916 73.51139194519136" height="73.51139194519136" width="42.650314847051916"><g><svg xmlns="http://www.w3.org/2000/svg" xmlns:xlink="http://www.w3.org/1999/xlink" version="1.1" x="0" y="0" viewBox="21.679106830508616 1 56.85827385947762 98" enable-background="new 0 0 100 100" xml:space="preserve" height="73.51139194519136" width="42.650314847051916" class="icon-icon-0" data-fill-palette-color="accent" id="SvgjsSvg5185"><g fill="white"><path fill-rule="evenodd" clip-rule="evenodd" d="M30.545 28.822C29.38 36.039 30.875 43.672 37.045 47.863 30.758 19.81 45.756 8.664 59.646 1 43.466 24.046 76.542 24.644 78.423 51.13 80.028 73.71 64.507 91.317 46.639 99 46.845 76.175 24.089 73.067 21.801 54.397 20.905 47.094 25.062 33.766 30.545 28.822" fill="white"></path></g></svg></g></svg></g><g></g></svg></g><defs><mask></mask></defs><mask><g id="SvgjsG5184"><svg viewBox="0 0 395.52 151.43943573514554" height="151.43943573514554" width="395.52"><g><svg viewBox="0 0 395.52 151.43943573514554" height="151.43943573514554" width="395.52"><g transform="matrix(1,0,0,1,0,77.92804378995417)"><svg viewBox="0 0 395.52 73.51139194519136" height="73.51139194519136" width="395.52"><g id="SvgjsG5183"><svg viewBox="0 0 395.52 73.51139194519136" height="73.51139194519136" width="395.52" id="SvgjsSvg5182"><g><svg viewBox="0 0 395.52 73.51139194519136" height="73.51139194519136" width="395.52"><g transform="matrix(1,0,0,1,0,0)"><svg width="395.52" viewBox="1.5306399999999982 -20.85681 258.62617 48.06827761413121" height="73.51139194519136" data-palette-color="url(#8909cde8-93fa-47da-a02c-936a0e49b19e)"><path d="M24.864 18.098l-23.333-4.742 6.926-34.083 4.322 0.878-6.146 30.242 19.011 3.864zM43.206 21.012v0c-2.742-0.414-4.978-1.236-6.707-2.469-1.729-1.232-3.034-2.75-3.914-4.554-0.888-1.799-1.433-3.773-1.636-5.921-0.21-2.142-0.149-4.31 0.183-6.505v0l2.624-17.393 4.36 0.658-2.624 17.393c-0.253 1.674-0.328 3.338-0.227 4.992 0.096 1.646 0.437 3.157 1.025 4.533 0.581 1.375 1.478 2.536 2.691 3.481 1.213 0.945 2.804 1.566 4.776 1.863v0c1.997 0.301 3.716 0.173 5.155-0.385 1.439-0.558 2.641-1.419 3.605-2.582 0.97-1.155 1.742-2.498 2.317-4.029 0.581-1.53 0.996-3.12 1.245-4.768v0l2.624-17.393 4.361 0.658-2.624 17.393c-0.35 2.32-0.949 4.482-1.797 6.485-0.848 2.003-1.972 3.707-3.371 5.114-1.405 1.406-3.104 2.431-5.095 3.074-1.997 0.636-4.321 0.754-6.971 0.355zM70.57 24.302l-4.384-0.479 3.779-34.574 4.384 0.479zM103.951-4.433l-2.301 3.42c-0.361-0.479-0.853-0.954-1.475-1.425-0.622-0.471-1.328-0.903-2.116-1.298-0.794-0.402-1.663-0.739-2.607-1.012-0.95-0.279-1.943-0.455-2.98-0.526v0c-2.674-0.184-4.68 0.185-6.021 1.109-1.34 0.917-2.07 2.256-2.191 4.019v0c-0.085 1.237 0.173 2.237 0.775 3 0.602 0.763 1.563 1.417 2.882 1.963 1.319 0.552 3.005 1.143 5.06 1.772v0c2.371 0.691 4.413 1.47 6.124 2.336 1.704 0.873 2.985 1.967 3.844 3.282 0.858 1.322 1.215 3.024 1.071 5.106v0c-0.115 1.663-0.53 3.084-1.246 4.264-0.723 1.18-1.68 2.13-2.872 2.85-1.199 0.719-2.576 1.212-4.132 1.479-1.555 0.267-3.228 0.339-5.017 0.216v0c-1.762-0.121-3.469-0.426-5.119-0.914-1.65-0.488-3.202-1.143-4.656-1.965-1.447-0.821-2.785-1.816-4.014-2.983v0l2.36-3.566c0.481 0.588 1.118 1.18 1.913 1.776 0.794 0.596 1.704 1.16 2.73 1.691 1.026 0.525 2.148 0.97 3.366 1.335 1.218 0.365 2.479 0.592 3.782 0.682v0c2.481 0.171 4.434-0.146 5.86-0.95 1.432-0.803 2.207-2.067 2.326-3.789v0c0.09-1.304-0.221-2.374-0.932-3.212-0.711-0.831-1.797-1.561-3.257-2.189-1.467-0.622-3.257-1.27-5.369-1.943v0c-2.307-0.747-4.235-1.525-5.784-2.333-1.548-0.808-2.682-1.812-3.401-3.011-0.72-1.192-1.017-2.703-0.89-4.532v0c0.153-2.215 0.82-4.05 2.003-5.506 1.183-1.455 2.746-2.511 4.689-3.165 1.942-0.648 4.101-0.89 6.475-0.726v0c1.563 0.108 3.012 0.371 4.346 0.79 1.328 0.419 2.557 0.961 3.687 1.627 1.137 0.666 2.166 1.442 3.087 2.328zM136.616 27.211v0c-2.447 0.017-4.67-0.454-6.67-1.413-2-0.966-3.733-2.287-5.198-3.964-1.465-1.67-2.595-3.555-3.39-5.657-0.801-2.101-1.21-4.262-1.225-6.481v0c-0.016-2.32 0.385-4.536 1.204-6.649 0.819-2.106 1.966-3.99 3.44-5.654 1.475-1.657 3.203-2.976 5.183-3.956 1.987-0.974 4.157-1.469 6.51-1.486v0c2.447-0.017 4.67 0.474 6.67 1.474 2 0.999 3.723 2.341 5.168 4.024 1.452 1.69 2.575 3.575 3.37 5.656 0.801 2.088 1.21 4.225 1.225 6.412v0c0.016 2.32-0.378 4.536-1.184 6.648-0.799 2.112-1.935 3.997-3.411 5.654-1.475 1.657-3.206 2.966-5.192 3.927-1.98 0.961-4.147 1.449-6.5 1.465zM124.593 9.665v0c0.012 1.767 0.308 3.471 0.886 5.113 0.585 1.643 1.405 3.097 2.46 4.363 1.056 1.266 2.319 2.271 3.791 3.014 1.472 0.743 3.108 1.108 4.908 1.096v0c1.86-0.013 3.521-0.418 4.982-1.215 1.468-0.79 2.711-1.842 3.728-3.156 1.018-1.314 1.791-2.789 2.319-4.426 0.529-1.637 0.787-3.289 0.775-4.956v0c-0.012-1.76-0.311-3.455-0.895-5.084-0.578-1.629-1.405-3.087-2.481-4.373-1.069-1.279-2.333-2.28-3.791-3.003-1.458-0.723-3.068-1.079-4.827-1.067v0c-1.86 0.013-3.524 0.408-4.992 1.185-1.461 0.777-2.701 1.822-3.718 3.136-1.024 1.314-1.807 2.779-2.35 4.397-0.542 1.617-0.807 3.276-0.795 4.975zM164.245 26.158l-4.401 0.278-2.196-34.71 14.861-0.94c1.537-0.097 2.961 0.133 4.272 0.692 1.311 0.552 2.472 1.33 3.484 2.334 1.012 0.998 1.819 2.139 2.421 3.424 0.603 1.291 0.947 2.619 1.034 3.983v0c0.101 1.597-0.102 3.133-0.611 4.608-0.515 1.469-1.286 2.743-2.313 3.823-1.027 1.08-2.26 1.863-3.699 2.348v0l9.244 12.762-4.99 0.316-8.703-11.964-9.191 0.581zM162.297-4.64l0.912 14.421 10.509-0.665c1.204-0.076 2.234-0.475 3.091-1.197 0.856-0.729 1.501-1.661 1.937-2.798 0.435-1.143 0.613-2.35 0.532-3.621v0c-0.082-1.304-0.451-2.483-1.105-3.537-0.661-1.054-1.485-1.877-2.471-2.469-0.986-0.592-2.048-0.852-3.185-0.781v0zM213.138-13.504l0.462 3.892-11.916 1.415 3.638 30.645-4.379 0.52-3.639-30.645-11.916 1.415-0.462-3.893zM226.918 19.575l-4.362 0.652-5.144-34.398 4.361-0.652zM233.079 18.488l-0.645-3.369 16.87-31.159-21.597 4.136-0.738-3.85 26.646-5.103 0.645 3.369-16.487 31.086 21.647-4.146 0.737 3.85z" opacity="1" transform="matrix(1,0,0,1,0,0)" fill="black" class="wordmark-text-0" id="SvgjsPath5181"></path></svg></g></svg></g></svg></g></svg></g><g transform="matrix(1,0,0,1,176.43484257647404,0)"><svg viewBox="0 0 42.650314847051916 73.51139194519136" height="73.51139194519136" width="42.650314847051916"><g><svg xmlns="http://www.w3.org/2000/svg" xmlns:xlink="http://www.w3.org/1999/xlink" version="1.1" x="0" y="0" viewBox="21.679106830508616 1 56.85827385947762 98" enable-background="new 0 0 100 100" xml:space="preserve" height="73.51139194519136" width="42.650314847051916" class="icon-icon-0" data-fill-palette-color="accent" id="SvgjsSvg5180"><g fill="black"><path fill-rule="evenodd" clip-rule="evenodd" d="M30.545 28.822C29.38 36.039 30.875 43.672 37.045 47.863 30.758 19.81 45.756 8.664 59.646 1 43.466 24.046 76.542 24.644 78.423 51.13 80.028 73.71 64.507 91.317 46.639 99 46.845 76.175 24.089 73.067 21.801 54.397 20.905 47.094 25.062 33.766 30.545 28.822" fill="black"></path></g></svg></g></svg></g><g></g></svg></g><defs><mask></mask></defs></svg><rect width="395.52" height="151.43943573514554" fill="black" stroke="none" visibility="hidden"></rect></g></mask></svg><rect width="395.52" height="151.43943573514554" fill="black" stroke="none" visibility="hidden"></rect></g></mask><linearGradient x1="0" x2="1" y1="0.578" y2="0.595" id="473421b1-4764-4773-bb1e-59b4e4f9d3f8"><stop stop-color="#6ee2f5" offset="0"></stop><stop stop-color="#6454f0" offset="1"></stop></linearGradient><rect width="395.52" height="151.43943573514554" fill="url(#473421b1-4764-4773-bb1e-59b4e4f9d3f8)" mask="url(#7537c52d-7b7f-40ea-85f0-40eaf2b2274e)" data-fill-palette-color="accent"></rect></svg><rect width="395.52" height="151.43943573514554" fill="none" stroke="none" visibility="hidden"></rect></g></svg></g></svg>